<?xml version="1.0" encoding="utf-8"?>
<!-- Generator: Adobe Illustrator 16.0.4, SVG Export Plug-In . SVG Version: 6.00 Build 0)  -->
<!DOCTYPE svg PUBLIC "-//W3C//DTD SVG 1.1//EN" "http://www.w3.org/Graphics/SVG/1.1/DTD/svg11.dtd">
<svg version="1.1" id="レイヤー_1" xmlns="http://www.w3.org/2000/svg" xmlns:xlink="http://www.w3.org/1999/xlink" x="0px"
	 y="0px" width="87px" height="115px" viewBox="0 0 87 115" enable-background="new 0 0 87 115" xml:space="preserve">
<g>
	<g>
		<path fill="#333333" d="M42.601,82.849c-0.486,0.478-0.59,1.224-0.249,1.815c0.155,0.271,0.39,0.468,0.656,0.596l0.293-0.289
			c3.729-3.668,6.658-4.688,11.879-4.688s8.15,1.02,11.879,4.688l0.297,0.292c0.272-0.132,0.51-0.338,0.664-0.616
			c0.127-0.229,0.189-0.479,0.189-0.729c0-0.393-0.154-0.779-0.449-1.069c-3.916-3.853-7.095-4.976-12.58-4.976
			C49.695,77.873,46.518,78.996,42.601,82.849z"/>
		<polygon fill="#333333" points="68.209,83.688 66.209,83.688 66.209,110.584 68.209,111.016 		"/>
		<rect x="42.151" y="83.688" fill="#333333" width="1.954" height="22.979"/>
		<path fill="#333333" d="M19.497,82.849c-0.486,0.478-0.59,1.224-0.249,1.815c0.155,0.271,0.39,0.468,0.656,0.596l0.294-0.289
			c3.729-3.668,6.658-4.688,11.879-4.688s7.149,1.02,10.878,4.688l0.297,0.292c0.272-0.132,0.51-0.338,0.664-0.616
			c0.127-0.229,0.189-0.479,0.189-0.729c0-0.393-0.154-0.779-0.449-1.069c-3.916-3.853-6.095-4.976-11.579-4.976
			C26.592,77.873,23.414,78.996,19.497,82.849z"/>
		<path fill="#333333" d="M67.76,105.849c-3.916-3.853-7.095-4.976-12.58-4.976c-5.235,0-8.371,1.029-12.051,4.473
			c-3.681-3.443-5.816-4.473-11.052-4.473c-5.485,0-8.663,1.123-12.58,4.976c-0.486,0.478-0.59,1.224-0.249,1.815
			c0.155,0.271,0.39,0.468,0.656,0.596l0.294-0.289c3.729-3.668,6.658-4.688,11.879-4.688c4.862,0,6.737,0.887,10.122,3.973
			c0.032,0.14,0.077,0.279,0.152,0.408c0.155,0.271,0.39,0.468,0.656,0.596l0.121,0.003h0.123c0.272-0.132,0.51-0.338,0.664-0.616
			c0.07-0.127,0.116-0.26,0.147-0.396c3.382-3.08,6.257-3.967,11.116-3.967c5.221,0,8.15,1.02,11.879,4.688l0.297,0.292
			c0.272-0.132,0.51-0.338,0.664-0.616c0.127-0.229,0.189-0.479,0.189-0.729C68.209,106.525,68.055,106.139,67.76,105.849z"/>
		<rect x="42.128" y="83.688" fill="#333333" width="2" height="25.658"/>
		<polygon fill="#333333" points="21.048,83.688 19.048,83.688 19.048,110.969 21.048,110.584 		"/>
		<path fill="#333333" d="M20.198,111.971c3.729-3.668,6.658-4.688,11.879-4.688c4.862,0,6.737,0.887,10.122,3.973
			c0.032,0.14,0.077,0.279,0.152,0.408c0.155,0.271,0.39,0.468,0.656,0.596l0.121,0.003h0.123c0.272-0.132,0.51-0.338,0.664-0.616
			c0.07-0.127,0.116-0.26,0.147-0.396c3.382-3.08,6.257-3.967,11.116-3.967c5.221,0,8.15,1.02,11.879,4.688l0.961-0.324
			c0.127-0.229,0.189-0.479,0.189-0.729c0-0.393-0.154-0.779-0.449-1.069c-3.916-3.853-7.095-4.976-12.58-4.976
			c-5.235,0-8.371,1.029-12.051,4.473c-3.681-3.443-5.816-4.473-11.052-4.473c-5.485,0-8.663,1.123-12.58,4.976
			c-0.486,0.478-0.59,1.224-0.249,1.815"/>
	</g>
	<g>
		
			<line fill="none" stroke="#000000" stroke-width="2.5" stroke-linecap="round" stroke-linejoin="round" stroke-miterlimit="10" x1="42.801" y1="48.762" x2="42.801" y2="63.762"/>
		
			<line fill="none" stroke="#000000" stroke-width="2.5" stroke-linecap="round" stroke-linejoin="round" stroke-miterlimit="10" x1="42.801" y1="48.762" x2="35.73" y2="55.833"/>
		
			<line fill="none" stroke="#000000" stroke-width="2.5" stroke-linecap="round" stroke-linejoin="round" stroke-miterlimit="10" x1="42.801" y1="48.762" x2="49.873" y2="55.833"/>
	</g>
	
		<path opacity="0.8" fill="none" stroke="#333333" stroke-width="2.5" stroke-linecap="round" stroke-linejoin="round" stroke-miterlimit="10" d="
		M66.5,12c-10.355,0-18.75,6.713-18.75,15c0,3.246,1.301,6.241,3.489,8.695l-1.378,5.141l5.863-1.571
		C58.775,40.982,62.486,42,66.5,42c10.355,0,18.75-6.713,18.75-15S76.855,12,66.5,12z"/>
	
		<path opacity="0.5" fill="none" stroke="#333333" stroke-width="2.5" stroke-linecap="round" stroke-linejoin="round" stroke-miterlimit="10" d="
		M20.5,3c10.354,0,18.75,6.713,18.75,15c0,3.246-1.302,6.241-3.49,8.695l1.378,5.141l-5.863-1.571C28.225,31.982,24.514,33,20.5,33
		C10.145,33,1.75,26.287,1.75,18S10.145,3,20.5,3z"/>
	<g>
		<circle opacity="0.8" fill="#333333" cx="42.801" cy="42.75" r="1.25"/>
		<circle opacity="0.7" fill="#333333" cx="42.801" cy="37.75" r="1.25"/>
		<circle opacity="0.5" fill="#333333" cx="42.801" cy="32.75" r="1.25"/>
	</g>
</g>
</svg>
