<?xml version="1.0" encoding="utf-8"?>
<!-- Generator: Adobe Illustrator 16.0.4, SVG Export Plug-In . SVG Version: 6.00 Build 0)  -->
<!DOCTYPE svg PUBLIC "-//W3C//DTD SVG 1.1//EN" "http://www.w3.org/Graphics/SVG/1.1/DTD/svg11.dtd">
<svg version="1.1" id="レイヤー_1" xmlns="http://www.w3.org/2000/svg" xmlns:xlink="http://www.w3.org/1999/xlink" x="0px"
	 y="0px" width="1024px" height="500px" viewBox="0 0 1024 500" enable-background="new 0 0 1024 500" xml:space="preserve">
<g>
	<g id="c_1_">
		<path fill="#323333" d="M354.1196289,185.0585938c0,5.5615234-2.7207031,8.3417969-8.1601562,8.3417969
			c-5.3217773,0-7.9794922-2.5400391-7.9794922-7.6162109c0-1.3300781,0.6030273-3.3242188,1.8129883-5.9853516
			c0.362793-0.84375,0.543457-1.6914062,0.543457-2.5390625c0-2.4160156-1.2407227-4.4111328-3.7163086-5.984375
			c-2.4794922-1.5693359-5.5932617-2.3574219-9.3393555-2.3574219c-7.2548828,0-12.8764648,3.1455078-16.8662109,9.4306641
			c-3.9897461,6.2871094-5.984375,15.1132812-5.984375,26.4755859c0,12.8164062,2.0551758,22.7001953,6.1665039,29.6503906
			c4.1074219,6.9541016,9.9111328,10.4277344,17.4082031,10.4277344c5.078125,0,9.6123047-1.5693359,13.6020508-4.7148438
			c1.8129883-1.4501953,4.1704102-4.2304688,7.0717773-8.3417969c0.6035156-0.6025391,1.1484375-0.9072266,1.6333008-0.9072266
			c1.2060547,0,1.8125,0.4853516,1.8125,1.4511719c0,1.5722656-2.1162109,4.5332031-6.347168,8.8857422
			c-5.440918,5.6845703-12.394043,8.5234375-20.8544922,8.5234375c-10.640625,0-19.4350586-3.8076172-26.3862305-11.4238281
			c-6.9536133-7.6171875-10.4277344-17.2294922-10.4277344-28.8349609c0-12.4511719,3.6870117-22.7587891,11.0625-30.9199219
			c7.3730469-8.1611328,16.6210938-12.2402344,27.746582-12.2402344c7.1318359,0,13.4482422,1.875,18.9506836,5.6210938
			C351.3681641,175.75,354.1196289,180.1025391,354.1196289,185.0585938z"/>
	</g>
	<path id="o" fill="#323333" d="M465.9326172,208.4521484c0,11.7285156-3.5678711,21.5517578-10.699707,29.46875
		c-7.1342773,7.9199219-16.0214844,11.8779297-26.6582031,11.8779297c-11.0019531,0-20.1914062-3.9580078-27.5644531-11.8779297
		c-7.3754883-7.9169922-11.0625-17.7402344-11.0625-29.46875c0-12.0878906,3.5961914-22.125,10.7905273-30.1035156
		c7.190918-7.9794922,16.1674805-11.96875,26.9301758-11.96875c10.8803711,0,19.9760742,4.0205078,27.2924805,12.0595703
		C462.2749023,186.4804688,465.9326172,196.4824219,465.9326172,208.4521484z M449.4301758,208.2705078
		c0-13.2978516-2.0571289-23.6347656-6.1660156-31.0107422c-3.0229492-5.4404297-8.1010742-8.1601562-15.2329102-8.1601562
		c-6.7729492,0-12.0600586,3.4775391-15.8686523,10.4267578c-3.8076172,6.9541016-5.7114258,16.5927734-5.7114258,28.9257812
		c0,12.2128906,2.0229492,21.7324219,6.0742188,28.5625c4.0498047,6.8310547,9.7021484,10.2451172,16.9570312,10.2451172
		c5.5585938,0,9.6704102-2.1132812,12.331543-6.3466797C446.890625,232.9335938,449.4301758,222.0537109,449.4301758,208.2705078z"
		/>
	<g id="e_1_">
		<g id="shadow">
			<g>
				<g>
					<path fill="#A5A5A5" d="M529.1552734,211.7929688c-2.7021484,0.0771484-2.9521484,2.7275391-7.9755859,2.9394531
						c-5.0361328,0.2109375-7.125,0.421875-9.0214844,2.3164062c-2.1245117,2.125-3.2939453,5.4326172-2.9204102,9.3173828
						c0.3974609,4.1328125,2.6586914,6.3535156,4.5239258,7.7558594c1.8642578,1.4013672,5.8300781,2.1494141,8.2568359,2.1494141
						l10.2421875,3.5322266l-1.2158203,3.7216797l-5.3535156,3.0058594c-7.9472656,0-15.0537109,0.5927734-20.6743164-3.359375
						c-6.7158203-4.7226562-8.1855469-10.2021484-8.1855469-19.8349609c0-5.8203125,2.0854492-15.7695312,9.2041016-17.7929688
						c-7.1186523-4.1474609-8.1586914-8.5839844-8.1586914-17.7333984c0-7.8662109,5.0288086-13.2041016,10.6586914-15.9628906
						c2.9750977-1.4892578,5.7016602-2.2324219,12.605957-2.2324219l10.7841797,2.5185547l-0.9746094,6.6376953
						l-6.6152344,2.5185547c-6.1757812,0-9.4375,0.7978516-12.046875,2.4355469
						c-2.6108398,1.6357422-3.9130859,3.7392578-3.9130859,7.6435547c0,2.7441406,0.269043,3.5195312,1.9135742,5.8945312
						c1.6499023,2.3759766,4.2993164,4.8994141,6.8500977,5.8496094c1.5927734,0.421875,1.9306641,3.1708984,12.1298828,3.1708984
						L529.1552734,211.7929688z"/>
				</g>
				<path fill="#FFFFFF" d="M530.1816406,211.7929688c-2.703125,0.0771484-2.953125,2.7275391-7.9765625,2.9394531
					c-5.0351562,0.2109375-7.125,0.421875-9.0205078,2.3164062c-2.125,2.125-3.2949219,5.4326172-2.9208984,9.3173828
					c0.3974609,4.1328125,2.6591797,6.3535156,4.5234375,7.7558594c1.8642578,1.4013672,5.8300781,2.1494141,8.2578125,2.1494141
					l10.2412109,3.5322266l-1.2158203,3.7216797l-5.3525391,3.0058594c-7.9472656,0-15.0546875,0.5927734-20.6748047-3.359375
					c-6.7163086-4.7226562-8.1860352-10.2021484-8.1860352-19.8349609c0-5.8203125,2.0859375-15.7695312,9.2041016-17.7929688
					c-7.1181641-4.1474609-8.1586914-8.5839844-8.1586914-17.7333984c0-7.8662109,5.0288086-13.2041016,10.6591797-15.9628906
					c2.9755859-1.4892578,5.7021484-2.2324219,12.6064453-2.2324219l10.7832031,2.5185547l-0.9746094,6.6376953
					l-6.6152344,2.5185547c-6.1757812,0-9.4375,0.7978516-12.046875,2.4355469
					c-2.6103516,1.6357422-3.9130859,3.7392578-3.9130859,7.6435547c0,2.7441406,0.2695312,3.5195312,1.9140625,5.8945312
					c1.6494141,2.3759766,4.2998047,4.8994141,6.8505859,5.8496094c1.5917969,0.421875,1.9296875,3.1708984,12.1289062,3.1708984
					L530.1816406,211.7929688z"/>
			</g>
			<g>
				<g>
					<path fill="#B2B2B2" d="M532.6738281,211.7929688c-2.7011719,0.0771484-2.953125,2.7275391-7.9746094,2.9394531
						c-5.0371094,0.2109375-7.1269531,0.421875-9.0214844,2.3164062c-2.125,2.125-3.2949219,5.4326172-2.9208984,9.3173828
						c0.3974609,4.1328125,2.6591797,6.3535156,4.5234375,7.7558594c1.8642578,1.4013672,5.8310547,2.1494141,8.2568359,2.1494141
						l10.2421875,3.5322266l-1.2167969,3.7216797l-5.3515625,3.0058594c-7.9472656,0-15.0546875,0.5927734-20.6748047-3.359375
						c-6.7163086-4.7226562-8.1860352-10.2021484-8.1860352-19.8349609c0-5.8203125,2.0859375-15.7695312,9.2041016-17.7929688
						c-7.1181641-4.1474609-8.1586914-8.5839844-8.1586914-17.7333984c0-7.8662109,5.0288086-13.2041016,10.6591797-15.9628906
						c2.9746094-1.4892578,5.7011719-2.2324219,12.6054688-2.2324219l10.7851562,2.5185547l-0.9755859,6.6376953
						l-6.6152344,2.5185547c-6.1748047,0-9.4384766,0.7978516-12.0458984,2.4355469
						c-2.6113281,1.6357422-3.9140625,3.7392578-3.9140625,7.6435547c0,2.7441406,0.2695312,3.5195312,1.9140625,5.8945312
						c1.6484375,2.3759766,4.2988281,4.8994141,6.8496094,5.8496094c1.5927734,0.421875,1.9316406,3.1708984,12.1308594,3.1708984
						L532.6738281,211.7929688z"/>
				</g>
				<path fill="#FFFFFF" d="M533.6992188,211.7929688c-2.7011719,0.0771484-2.9521484,2.7275391-7.9746094,2.9394531
					c-5.0371094,0.2109375-7.1259766,0.421875-9.0214844,2.3164062c-2.125,2.125-3.2949219,5.4326172-2.9208984,9.3173828
					c0.3974609,4.1328125,2.6591797,6.3535156,4.5234375,7.7558594c1.8642578,1.4013672,5.8310547,2.1494141,8.2568359,2.1494141
					l10.2421875,3.5322266l-1.2158203,3.7216797l-5.3525391,3.0058594c-7.9472656,0-15.0546875,0.5927734-20.6748047-3.359375
					c-6.7163086-4.7226562-8.1855469-10.2021484-8.1855469-19.8349609c0-5.8203125,2.0854492-15.7695312,9.2041016-17.7929688
					c-7.1186523-4.1474609-8.1591797-8.5839844-8.1591797-17.7333984c0-7.8662109,5.0292969-13.2041016,10.6591797-15.9628906
					c2.9746094-1.4892578,5.7011719-2.2324219,12.6054688-2.2324219l10.7851562,2.5185547l-0.9755859,6.6376953
					l-6.6152344,2.5185547c-6.1748047,0-9.4375,0.7978516-12.0458984,2.4355469
					c-2.6113281,1.6357422-3.9140625,3.7392578-3.9140625,7.6435547c0,2.7441406,0.2695312,3.5195312,1.9140625,5.8945312
					c1.6484375,2.3759766,4.2988281,4.8994141,6.8496094,5.8496094c1.59375,0.421875,1.9316406,3.1708984,12.1308594,3.1708984
					L533.6992188,211.7929688z"/>
			</g>
			<g>
				<g>
					<path fill="#C0BFBF" d="M536.1933594,211.7929688c-2.703125,0.0771484-2.953125,2.7275391-7.9765625,2.9394531
						c-5.0351562,0.2109375-7.125,0.421875-9.0205078,2.3164062c-2.125,2.125-3.2949219,5.4326172-2.9208984,9.3173828
						c0.3974609,4.1328125,2.6591797,6.3535156,4.5234375,7.7558594c1.8642578,1.4013672,5.8300781,2.1494141,8.2578125,2.1494141
						l10.2412109,3.5322266l-1.2158203,3.7216797l-5.3525391,3.0058594c-7.9472656,0-15.0546875,0.5927734-20.6748047-3.359375
						c-6.7163086-4.7226562-8.1860352-10.2021484-8.1860352-19.8349609c0-5.8203125,2.0859375-15.7695312,9.2036133-17.7929688
						c-7.1176758-4.1474609-8.1582031-8.5839844-8.1582031-17.7333984c0-7.8662109,5.0288086-13.2041016,10.6591797-15.9628906
						c2.9755859-1.4892578,5.7021484-2.2324219,12.6064453-2.2324219l10.7832031,2.5185547l-0.9746094,6.6376953
						l-6.6152344,2.5185547c-6.1757812,0-9.4375,0.7978516-12.046875,2.4355469
						c-2.6103516,1.6357422-3.9130859,3.7392578-3.9130859,7.6435547c0,2.7441406,0.2695312,3.5195312,1.9140625,5.8945312
						c1.6494141,2.3759766,4.2998047,4.8994141,6.8505859,5.8496094c1.5917969,0.421875,1.9296875,3.1708984,12.1289062,3.1708984
						L536.1933594,211.7929688z"/>
				</g>
				<path fill="#FFFFFF" d="M537.21875,211.7929688c-2.7021484,0.0771484-2.953125,2.7275391-7.9765625,2.9394531
					c-5.0351562,0.2109375-7.125,0.421875-9.0195312,2.3164062c-2.1259766,2.125-3.2949219,5.4326172-2.921875,9.3173828
					c0.3974609,4.1328125,2.6591797,6.3535156,4.5234375,7.7558594c1.8652344,1.4013672,5.8310547,2.1494141,8.2578125,2.1494141
					l10.2421875,3.5322266l-1.2167969,3.7216797l-5.3515625,3.0058594c-7.9472656,0-15.0546875,0.5927734-20.6757812-3.359375
					c-6.7158203-4.7226562-8.1855469-10.2021484-8.1855469-19.8349609c0-5.8203125,2.0859375-15.7695312,9.2041016-17.7929688
					c-7.1181641-4.1474609-8.1586914-8.5839844-8.1586914-17.7333984c0-7.8662109,5.0288086-13.2041016,10.659668-15.9628906
					c2.9746094-1.4892578,5.7011719-2.2324219,12.6054688-2.2324219l10.7841797,2.5185547l-0.9755859,6.6376953
					l-6.6152344,2.5185547c-6.1748047,0-9.4375,0.7978516-12.0458984,2.4355469
					c-2.6113281,1.6357422-3.9130859,3.7392578-3.9130859,7.6435547c0,2.7441406,0.2695312,3.5195312,1.9130859,5.8945312
					c1.6494141,2.3759766,4.2998047,4.8994141,6.8505859,5.8496094c1.5917969,0.421875,1.9306641,3.1708984,12.1298828,3.1708984
					L537.21875,211.7929688z"/>
			</g>
		</g>
		<g id="e">
			<path fill="#323333" d="M562.109375,216.9345703c0,1.2744141,0.578125,1.9121094-0.2724609,1.9121094
				c-0.5273438,0-0.8466797-0.3164062-0.953125-0.9550781c-0.1064453-0.6367188-0.0732422-0.5263672-0.1591797-1.4257812
				C560.6445312,215.6347656,559.953125,213.7333984,559,213.625l-2.2255859-0.1572266c0,0-2.4003906,0.1538086-9.7734375,0.3657227
				c-2.7021484,0.0771484-10.1533203,0.3452148-15.1748047,0.5571289c-5.0371094,0.2109375-7.1259766,0.4208984-9.0214844,2.3164062
				c-2.125,2.125-3.2949219,5.4326172-2.9208984,9.3173828c0.3974609,4.1318359,2.6591797,6.3535156,4.5234375,7.7558594
				c1.8642578,1.4013672,5.8310547,2.1494141,8.2568359,2.1494141l21.6972656,1.0136719
				c3.1816406,0,5.0615234-0.2353516,5.6425781-0.7050781c0.5839844-0.4707031,0.8037109-0.4853516,0.875-2.0048828v0.9580078
				c-0.1054688-0.6269531-0.1601562-0.7207031-0.1601562-1.2431641c0-1.1494141,0.4277344-1.7255859,1.2753906-1.7255859
				c0.7441406,0,0.1152344,0.6923828,0.1152344,2.0712891v1.1806641c-0.1074219,2.5507812-0.1074219,3.7998047,0,9.21875v2.3369141
				c0,1.0732422,0.6855469,1.8212891-0.1640625,1.8212891c-0.7421875,0-1.2207031-0.6875-1.2207031-1.6611328
				c0-0.5390625-0.0830078-0.7841797-0.1972656-0.9863281c-0.3632812-0.6396484-1.3896484-0.3955078-2.3457031-0.5019531
				l-21.84375,0.4863281c-7.9472656,0-15.0546875,0.5927734-20.6748047-3.3583984
				c-6.7163086-4.7226562-8.1860352-10.2021484-8.1860352-19.8349609c0-5.8203125,2.0859375-15.7705078,9.2045898-17.7929688
				c-7.1186523-4.1474609-8.1591797-8.5839844-8.1591797-17.7333984c0-7.8662109,5.0283203-13.2050781,10.6591797-15.9628906
				c2.9746094-1.4892578,5.7011719-2.2324219,12.6054688-2.2324219l22.2392578,1
				c3.6132812,0,5.6044922-0.1816406,5.9755859-0.5498047c0.3740234-0.3652344,0.7167969-0.3422852,0.8769531-1.7275391
				l-0.0136719,0.2421875c-0.1054688-1.1503906,0.2402344-1.7246094,1.0410156-1.7246094
				c0.7939453,0,0.203125,0.0498047,0.203125,1.8544922c0,0.2138672,0-1.8583984,0,0.2119141c0,2.0732422,0,2.6474609,0,6.1542969
				c0,0.3193359,0-2.7998047,0,8.140625c0,1.3837891,0.6542969,2.0722656-0.0410156,2.0722656
				c-0.7910156,0-1.1894531-0.5820312-1.1894531-1.7519531v-0.1455078c-0.1054688-1.59375-0.4794922-2.4345703-1.1191406-2.7001953
				c-0.6367188-0.2675781-2.8740234-0.4013672-6.7089844-0.4013672h-18.0693359
				c-6.1748047,0-9.4384766,0.7978516-12.0458984,2.4355469c-2.6113281,1.6357422-3.9140625,4.7392578-3.9140625,8.6425781
				c0,2.7451172,0.2695312,3.5205078,1.9140625,5.8955078c1.6484375,2.3759766,4.2988281,4.8994141,6.8496094,5.8496094
				c1.59375,0.421875,1.9316406,0.6523438,12.1308594,0.6523438l12.7792969,0.6054688
				c3.5039062,0,4.375,0.0097656,6.0546875-0.1542969c1.6806641-0.1650391,2.2070312-1.7021484,2.2705078-2.1728516
				c0.1230469-0.9052734,0.1474609-2.3193359,0.9384766-2.3193359c0.6953125,0,0.1503906,0.3144531,0.1503906,1.5488281v2.9755859
				c0,1.0595703,0-1.8623047,0,4.2978516c0,2.1269531,0,3.3701172,0,6.9277344V216.9345703z"/>
		</g>
	</g>
	<g id="i">
		<path fill="#323333" d="M609.0400391,240.4106445c5.5761719-19.3911133,8.2988281-36.1523438,8.1728516-50.2817383
			c0-1.6538086,0.8242188-2.480957,2.4697266-2.480957c1.6474609,0,2.46875,0.7504883,2.46875,2.2543945
			c-0.125,14.1308594,2.5351562,30.9658203,7.9814453,50.5083008c-2.6142578,3.0810547-3.9814453,4.659668-4.1064453,4.7358398
			c-2.1142578,2.1035156-4.2314453,3.15625-6.3466797,3.15625c-1.6162109,0-2.8935547-0.3388672-3.8242188-1.0151367
			c-0.9326172-0.6757812-2.8945312-2.6313477-5.8828125-5.8608398L609.0400391,240.4106445z"/>
		<path fill="#323333" d="M627.1826172,172.9931641c0,4.9296875-2.4648438,7.3945312-7.3935547,7.3945312
			c-2.0830078,0-3.8369141-0.6831055-5.2578125-2.0551758c-1.4257812-1.3681641-2.1357422-3.0385742-2.1357422-5.0107422
			c0-5.1474609,2.4638672-7.722168,7.3935547-7.722168C624.7177734,165.5996094,627.1826172,168.0629883,627.1826172,172.9931641z"
			/>
	</g>
	<path id="c" fill="#323333" d="M733.890625,185.0585938c0,5.5615234-2.7207031,8.3417969-8.1601562,8.3417969
		c-5.3222656,0-7.9785156-2.5400391-7.9785156-7.6162109c0-1.3300781,0.6015625-3.3242188,1.8125-5.9853516
		c0.3632812-0.84375,0.5429688-1.6914062,0.5429688-2.5390625c0-2.4160156-1.2402344-4.4111328-3.7167969-5.984375
		c-2.4785156-1.5693359-5.59375-2.3574219-9.3398438-2.3574219c-7.2539062,0-12.875,3.1455078-16.8652344,9.4306641
		c-3.9902344,6.2871094-5.984375,15.1132812-5.984375,26.4755859c0,12.8164062,2.0546875,22.7001953,6.1660156,29.6503906
		c4.1074219,6.9541016,9.9121094,10.4277344,17.4082031,10.4277344c5.078125,0,9.6132812-1.5693359,13.6035156-4.7148438
		c1.8125-1.4501953,4.1699219-4.2304688,7.0703125-8.3417969c0.6035156-0.6025391,1.1484375-0.9072266,1.6328125-0.9072266
		c1.2070312,0,1.8144531,0.4853516,1.8144531,1.4511719c0,1.5722656-2.1171875,4.5332031-6.3476562,8.8857422
		c-5.4414062,5.6845703-12.3945312,8.5234375-20.8554688,8.5234375c-10.640625,0-19.4335938-3.8076172-26.3847656-11.4238281
		c-6.9541016-7.6171875-10.4287109-17.2294922-10.4287109-28.8349609c0-12.4511719,3.6875-22.7587891,11.0634766-30.9199219
		c7.3710938-8.1611328,16.6210938-12.2402344,27.7460938-12.2402344c7.1308594,0,13.4472656,1.875,18.9492188,5.6210938
		C731.1386719,175.75,733.890625,180.1025391,733.890625,185.0585938z"/>
	<g>
		<g>
			<path fill="#323333" d="M440.6879883,309.1816406c0,0.7929688-1.4038086,0.7929688-1.6918945,0.7929688
				c-0.7558594,0-4.1035156-0.1083984-4.7871094-0.1083984c-3.527832,0-9.5029297,0.3955078-11.3388672,0.8271484
				c-0.2519531,0.0722656-1.4394531,0.5039062-1.6914062,0.5039062c-0.684082,0-2.699707-1.3671875-2.84375-3.0957031
				c1.2958984,0.3242188,2.0874023,0.46875,3.7436523,0.46875c1.8354492,0,10.4746094-0.5400391,13.4980469-0.9726562
				c0.4321289-2.375,1.2958984-8.0263672,1.2958984-10.1855469c0-0.46875-0.0361328-0.8642578-0.7558594-0.8642578
				c-0.1801758,0-11.2304688,1.1875-12.9223633,1.6923828c-0.2163086,0.0712891-1.1879883,0.4316406-1.4038086,0.4316406
				c-0.3959961,0-0.7558594-0.2519531-1.7998047-1.0800781c-1.2597656-1.0078125-1.4399414-1.1162109-1.5839844-2.015625
				c0.7558594,0.0351562,4.0317383,0.2519531,4.715332,0.2519531c3.4199219,0,11.9868164-0.7558594,13.2104492-1.5488281
				c0.5761719-0.359375,1.1518555-0.71875,1.4399414-0.71875c0.4321289,0,0.6118164,0.1796875,2.3037109,1.5839844
				c1.2236328,1.0429688,1.331543,1.1152344,1.331543,1.4394531c0,0.2871094-0.1079102,0.3955078-0.9355469,1.1513672
				c-0.5761719,0.5048828-0.828125,0.828125-1.3320312,2.84375c-0.5756836,2.3398438-1.1518555,4.6796875-1.7636719,7.0185547
				C439.0683594,307.8867188,440.6879883,308.1386719,440.6879883,309.1816406z"/>
			<path fill="#323333" d="M495.8413086,298.1308594c0.5395508,0.5410156,0.7197266,0.828125,0.7197266,1.0078125
				c0,0.2519531-0.2519531,1.2246094-0.3242188,1.5126953c-0.2875977,2.7001953-0.3598633,3.4189453-0.8276367,6.7314453
				c1.3676758-0.1445312,7.3789062-0.4326172,8.6030273-0.5410156c0.3598633-0.0351562,2.0874023-0.2519531,2.4477539-0.2519531
				c0.9355469,0,3.5991211,1.6923828,3.5991211,2.7001953c0,0.2880859-0.5395508,0.5761719-1.0795898,0.5761719
				c-0.3959961,0-0.6479492-0.0361328-2.7358398-0.6123047c-1.3676758-0.359375-2.84375-0.4677734-4.3554688-0.4677734
				c-5.1113281,0-12.0224609,0.6123047-16.8818359,1.9443359c-0.3237305,0.1074219-1.8359375,0.6835938-2.1235352,0.6835938
				c-0.2880859,0-3.671875-1.2597656-3.671875-3.0605469c0-0.1796875,0-0.2871094,0.0361328-0.4667969
				c1.9799805,0.5039062,3.1318359,0.6835938,4.2836914,0.6835938c1.6196289,0,8.746582-0.9003906,10.1865234-1.0439453
				c0.2158203-2.1962891,0.2519531-4.1396484,0.2519531-4.8955078c0-3.9960938-0.2519531-4.4628906-1.0078125-5.6513672
				c-0.9360352,0.1435547-2.4477539,0.4677734-3.5273438,0.7197266c-0.3242188,0.0722656-1.5478516,0.5039062-1.8720703,0.5039062
				c-0.8999023,0-3.1313477-1.9072266-3.1313477-2.6630859c0-0.1435547,0.0356445-0.2158203,0.0717773-0.3242188
				c0.7558594,0.2519531,1.8359375,0.6123047,3.4194336,0.6123047c2.6640625,0,7.9912109-0.8642578,10.2231445-1.6201172
				c0.2875977-0.1083984,1.4394531-0.6845703,1.7275391-0.6845703c1.0800781,0,3.5273438,0.7558594,3.5273438,1.7646484
				c0,0.4677734-0.3955078,0.5039062-2.159668,0.6123047c-0.9355469,0.0351562-1.5478516,0.1435547-6.7670898,0.8632812
				C495.1933594,297.4833984,495.5170898,297.8076172,495.8413086,298.1308594z"/>
			<path fill="#323333" d="M541.8505859,301.0830078c3.0244141,0.4677734,4.7158203,3.0595703,4.7158203,4.7509766
				c0,0.828125-0.5400391,1.2597656-1.0800781,1.2597656c-0.6835938,0-0.7919922-0.2519531-1.3671875-1.7988281
				c-0.7558594-1.9804688-1.8007812-3.2402344-2.4121094-3.9960938L541.8505859,301.0830078z M544.1542969,317.6777344
				c9.1425781-5.7597656,14.8300781-14.7949219,14.8300781-17.6386719c0-0.7197266-0.1796875-1.2236328-0.9716797-2.1953125
				c0.2880859-0.1083984,0.4677734-0.1445312,0.6474609-0.1445312c1.3320312,0,3.5644531,2.0527344,3.5644531,2.8798828
				c0,0.2519531-0.1796875,0.3603516-0.6484375,0.6845703c-0.3242188,0.2519531-0.4316406,0.4316406-0.828125,1.2226562
				c-3.4912109,6.9472656-9.2148438,12.5625-16.3769531,15.515625L544.1542969,317.6777344z M548.5458984,297.5195312
				c2.4482422,0.6113281,3.7802734,2.6640625,3.7802734,4.2109375c0,0.9365234-0.5410156,1.7636719-1.1884766,1.7636719
				c-0.6123047,0-0.6474609-0.3232422-1.0078125-1.8710938c-0.3242188-1.5117188-0.9365234-2.5556641-1.7636719-3.8876953
				L548.5458984,297.5195312z"/>
			<path fill="#323333" d="M594.0507812,316.7773438c6.8027344-3.7792969,12.6347656-9.0351562,17.0976562-15.40625
				c1.2958984-1.8710938,3.4560547-5.2910156,3.4560547-6.1191406c0-0.3242188-0.2880859-0.5400391-0.6123047-0.5400391
				c-0.4677734,0-2.4833984,0.5761719-2.9160156,0.6845703c-2.1591797,0.4667969-2.9150391,0.5751953-3.6347656,0.5751953
				c-1.1162109,0-1.8720703-0.2519531-2.3046875-0.4316406c-4.5351562,6.3349609-8.5302734,8.4228516-10.6894531,9.3945312
				l-0.2519531-0.3232422c6.9472656-5.7597656,10.1855469-11.6992188,10.1855469-13.1386719
				c0-0.6123047-0.3232422-1.1523438-0.71875-1.8007812c0.2871094-0.1074219,0.6113281-0.2148438,1.1152344-0.2148438
				c1.5117188,0,3.0595703,1.4033203,3.0595703,1.9794922c0,0.3955078-0.1796875,0.6123047-1.7636719,2.8076172
				c0.3242188,0.0351562,0.6474609,0.1074219,1.0439453,0.1074219c1.2597656,0,3.0595703-0.4316406,4.5712891-0.8994141
				c0.5400391-0.1806641,2.9521484-1.2236328,3.4912109-1.2236328c0.9003906,0,3.7792969,2.1230469,3.7792969,2.6992188
				c0,0.3603516-0.2148438,0.5039062-1.5830078,1.4042969c-0.4677734,0.3242188-0.5761719,0.5039062-1.5117188,2.1230469
				c-5.0029297,8.4951172-12.2744141,15.6230469-21.6689453,18.6816406L594.0507812,316.7773438z"/>
		</g>
		<line fill="#FFFFFF" stroke="#323333" stroke-miterlimit="10" x1="295.1088867" y1="303.1875" x2="328.1142578" y2="303.1875"/>
		<line fill="#FFFFFF" stroke="#323333" stroke-miterlimit="10" x1="702.8847656" y1="303.1875" x2="735.890625" y2="303.1875"/>
	</g>
</g>
<g>
</g>
<g>
</g>
<g>
</g>
<g>
</g>
<g>
</g>
<g>
</g>
</svg>
